<svg width="135" height="129" viewBox="0 0 135 129" fill="none" xmlns="http://www.w3.org/2000/svg">
<path d="M26.464 128.216C25.552 128.216 24.64 128.184 23.728 128.12C22.832 128.072 21.896 127.944 20.92 127.736V111.608C21.688 111.464 22.528 111.36 23.44 111.296C24.352 111.216 25.2 111.176 25.984 111.176C27.04 111.176 28.008 111.256 28.888 111.416C29.784 111.56 30.552 111.816 31.192 112.184C31.832 112.552 32.328 113.04 32.68 113.648C33.048 114.24 33.232 114.976 33.232 115.856C33.232 117.184 32.592 118.232 31.312 119C32.368 119.4 33.088 119.944 33.472 120.632C33.856 121.32 34.048 122.096 34.048 122.96C34.048 124.704 33.408 126.016 32.128 126.896C30.864 127.776 28.976 128.216 26.464 128.216ZM24.568 120.752V125.048C24.84 125.08 25.136 125.104 25.456 125.12C25.776 125.136 26.128 125.144 26.512 125.144C27.632 125.144 28.536 124.984 29.224 124.664C29.912 124.344 30.256 123.752 30.256 122.888C30.256 122.12 29.968 121.576 29.392 121.256C28.816 120.92 27.992 120.752 26.92 120.752H24.568ZM24.568 117.896H26.392C27.544 117.896 28.368 117.752 28.864 117.464C29.36 117.16 29.608 116.68 29.608 116.024C29.608 115.352 29.352 114.88 28.84 114.608C28.328 114.336 27.576 114.2 26.584 114.2C26.264 114.2 25.92 114.208 25.552 114.224C25.184 114.224 24.856 114.24 24.568 114.272V117.896Z" fill="white"/>
<path d="M47.9466 128C47.7706 127.424 47.5706 126.832 47.3466 126.224C47.1386 125.616 46.9306 125.008 46.7226 124.4H40.2426C40.0346 125.008 39.8186 125.616 39.5946 126.224C39.3866 126.832 39.1946 127.424 39.0186 128H35.1306C35.7546 126.208 36.3466 124.552 36.9066 123.032C37.4666 121.512 38.0106 120.08 38.5386 118.736C39.0826 117.392 39.6106 116.12 40.1226 114.92C40.6506 113.704 41.1946 112.52 41.7546 111.368H45.3306C45.8746 112.52 46.4106 113.704 46.9386 114.92C47.4666 116.12 47.9946 117.392 48.5226 118.736C49.0666 120.08 49.6186 121.512 50.1786 123.032C50.7386 124.552 51.3306 126.208 51.9546 128H47.9466ZM43.4586 115.136C43.3786 115.376 43.2586 115.704 43.0986 116.12C42.9386 116.536 42.7546 117.016 42.5466 117.56C42.3386 118.104 42.1066 118.704 41.8506 119.36C41.6106 120.016 41.3626 120.704 41.1066 121.424H45.8346C45.5786 120.704 45.3306 120.016 45.0906 119.36C44.8506 118.704 44.6186 118.104 44.3946 117.56C44.1866 117.016 44.0026 116.536 43.8426 116.12C43.6826 115.704 43.5546 115.376 43.4586 115.136Z" fill="white"/>
<path d="M59.6515 128.216C58.7395 128.216 57.8275 128.184 56.9155 128.12C56.0195 128.072 55.0835 127.944 54.1075 127.736V111.608C54.8755 111.464 55.7155 111.36 56.6275 111.296C57.5395 111.216 58.3875 111.176 59.1715 111.176C60.2275 111.176 61.1955 111.256 62.0755 111.416C62.9715 111.56 63.7395 111.816 64.3795 112.184C65.0195 112.552 65.5155 113.04 65.8675 113.648C66.2355 114.24 66.4195 114.976 66.4195 115.856C66.4195 117.184 65.7795 118.232 64.4995 119C65.5555 119.4 66.2755 119.944 66.6595 120.632C67.0435 121.32 67.2355 122.096 67.2355 122.96C67.2355 124.704 66.5955 126.016 65.3155 126.896C64.0515 127.776 62.1635 128.216 59.6515 128.216ZM57.7555 120.752V125.048C58.0275 125.08 58.3235 125.104 58.6435 125.12C58.9635 125.136 59.3155 125.144 59.6995 125.144C60.8195 125.144 61.7235 124.984 62.4115 124.664C63.0995 124.344 63.4435 123.752 63.4435 122.888C63.4435 122.12 63.1555 121.576 62.5795 121.256C62.0035 120.92 61.1795 120.752 60.1075 120.752H57.7555ZM57.7555 117.896H59.5795C60.7315 117.896 61.5555 117.752 62.0515 117.464C62.5475 117.16 62.7955 116.68 62.7955 116.024C62.7955 115.352 62.5395 114.88 62.0275 114.608C61.5155 114.336 60.7635 114.2 59.7715 114.2C59.4515 114.2 59.1075 114.208 58.7395 114.224C58.3715 114.224 58.0435 114.24 57.7555 114.272V117.896Z" fill="white"/>
<path d="M75.5082 118.208C76.1802 117.072 76.8202 115.936 77.4282 114.8C78.0362 113.664 78.5962 112.52 79.1082 111.368H83.2362C82.3242 113.16 81.3802 114.896 80.4042 116.576C79.4282 118.256 78.3962 119.944 77.3082 121.64V128H73.5642V121.688C72.4762 119.992 71.4362 118.296 70.4442 116.6C69.4682 114.904 68.5242 113.16 67.6122 111.368H71.9562C72.4682 112.52 73.0202 113.664 73.6122 114.8C74.2042 115.936 74.8362 117.072 75.5082 118.208Z" fill="white"/>
<path d="M85.2794 128V111.368H96.4154V114.512H89.0234V117.992H95.5994V121.136H89.0234V128H85.2794Z" fill="white"/>
<path d="M99.0606 111.368H102.805V128H99.0606V111.368Z" fill="white"/>
<path d="M116.206 128C115.742 127.072 115.23 126.136 114.67 125.192C114.126 124.232 113.494 123.256 112.774 122.264C112.55 122.552 112.262 122.952 111.91 123.464C111.574 123.976 111.23 124.52 110.878 125.096C110.542 125.672 110.222 126.224 109.918 126.752C109.614 127.28 109.39 127.696 109.246 128H104.974C105.678 126.704 106.494 125.344 107.422 123.92C108.366 122.496 109.414 120.984 110.566 119.384L105.214 111.368H109.75L112.99 116.552L116.158 111.368H120.43L115.15 119.432C116.494 121.176 117.622 122.792 118.534 124.28C119.446 125.752 120.166 126.992 120.694 128H116.206Z" fill="white"/>
<path d="M66.9472 14.3157C51.1601 14.3157 38.3156 27.1601 38.3156 42.9473C38.3156 58.7344 51.1601 71.5788 66.9472 71.5788C82.7343 71.5788 95.5788 58.7344 95.5788 42.9473C95.5788 27.1601 82.7343 14.3157 66.9472 14.3157ZM81.5951 25.0106C81.9167 24.6524 82.371 24.4408 82.8533 24.4217C83.2692 24.3746 83.804 24.5772 84.1535 24.9092C87.8652 28.4235 90.3887 32.8973 91.4441 37.8463C91.6118 38.6361 91.2309 39.44 90.5143 39.8104C88.7632 40.7157 86.6838 41.1542 84.6916 41.1542C82.0948 41.1542 79.6343 40.4097 78.2083 38.9837C75.1746 35.9519 76.4397 30.7286 81.5951 25.0106ZM52.2995 61.1634C51.9779 61.5216 51.5236 61.7348 51.0413 61.7541C51.0203 61.7558 50.9958 61.7558 50.9713 61.7558C50.5135 61.7558 50.0731 61.581 49.7411 61.2664C46.0294 57.7521 43.5059 53.2784 42.4505 48.3277C42.2827 47.5379 42.6637 46.734 43.3802 46.3636C47.4136 44.2823 53.1663 44.6702 55.6863 47.1901C58.7164 50.2223 57.4512 55.4456 52.2995 61.1634ZM55.6861 38.9839C54.2601 40.4098 51.7996 41.1544 49.2028 41.1544C47.2106 41.1544 45.1345 40.7157 43.3801 39.8106C42.6635 39.4402 42.2826 38.6363 42.4503 37.8464C43.5059 32.8974 46.0292 28.4237 49.741 24.9094C50.0904 24.5774 50.6043 24.3712 51.0411 24.4219C51.5234 24.4412 51.9777 24.6526 52.2993 25.0107C57.4547 30.7286 58.7198 35.9519 55.6861 38.9839ZM74.5734 66.8098C72.0953 67.5997 69.5299 67.9999 66.9472 67.9999C64.3645 67.9999 61.7989 67.5998 59.321 66.8098C58.5346 66.5582 58.0209 65.8033 58.0767 64.9802C58.5242 58.5405 62.3372 53.6841 66.9472 53.6841C71.5572 53.6841 75.3702 58.5405 75.8177 64.98C75.8735 65.8033 75.3598 66.5582 74.5734 66.8098ZM59.7893 42.9473C59.7893 38.9996 63.0013 35.7893 66.9472 35.7893C70.8931 35.7893 74.1051 38.9995 74.1051 42.9473C74.1051 46.8951 70.8931 50.1052 66.9472 50.1052C63.0013 50.1052 59.7893 46.8949 59.7893 42.9473ZM75.8177 21.0559C75.3702 27.4938 71.5572 32.3502 66.9472 32.3502C62.3372 32.3502 58.5242 27.4938 58.0767 21.0559C58.0209 20.2329 58.531 19.4779 59.3175 19.228C64.2736 17.6446 69.621 17.6446 74.5769 19.228C75.3634 19.4779 75.8735 20.2329 75.8177 21.0559ZM91.4441 48.043C90.3885 52.9937 87.8652 57.4675 84.1535 60.9818C83.8214 61.2963 83.3811 61.4711 82.9232 61.4711C82.8988 61.4711 82.8743 61.4711 82.8533 61.4694C82.371 61.4501 81.9167 61.2388 81.5951 60.8806C76.4399 55.1627 75.1746 49.9376 78.2083 46.9056C80.7282 44.384 86.4776 44.0011 90.5143 46.0791C91.2309 46.4493 91.6118 47.2532 91.4441 48.043Z" fill="white"/>
<path d="M66.9473 0C43.2647 0 24 19.2665 24 42.9473C24 66.628 43.2647 85.8945 66.9473 85.8945C90.6298 85.8945 109.895 66.628 109.895 42.9473C109.895 19.2665 90.6298 0 66.9473 0ZM66.9473 75.1577C49.1854 75.1577 34.7368 60.7075 34.7368 42.9473C34.7368 25.1871 49.1854 10.7368 66.9473 10.7368C84.7091 10.7368 99.1577 25.1871 99.1577 42.9473C99.1577 60.7075 84.7091 75.1577 66.9473 75.1577Z" fill="white"/>
<path d="M32.3277 95.1042H102.672C105.69 100.491 111.449 104.133 118.063 104.133C125.433 104.133 131.747 99.6124 134.381 93.1922H118.063V79.8078H134.381C131.747 73.3876 125.433 68.8667 118.063 68.8667C111.362 68.8667 105.534 72.6042 102.551 78.1082H32.4492C29.4653 72.6042 23.638 68.8665 16.9374 68.8667C9.56742 68.8667 3.2534 73.3876 0.619022 79.8078H16.9372L16.9372 93.1922L0.619019 93.1921C3.2534 99.6124 9.56742 104.133 16.9373 104.133C23.5504 104.133 29.31 100.491 32.3277 95.1042Z" fill="white"/>
</svg>
